<?xml version="1.0" encoding="utf-8"?>
<!-- Generator: Adobe Illustrator 19.0.0, SVG Export Plug-In . SVG Version: 6.00 Build 0)  -->
<svg version="1.1" id="Layer_1" xmlns="http://www.w3.org/2000/svg" xmlns:xlink="http://www.w3.org/1999/xlink" x="0px" y="0px"
	 viewBox="819 4 2037 394" style="enable-background:new 819 4 2037 394;" xml:space="preserve">
<style type="text/css">
	.st0{fill:#72CFF5;}
</style>
<polygon id="XMLID_36_" class="st0" points="1751.8,289 1697,391.2 1755,391.2 1804.6,292 "/>
<path class="st0" d="M966.2,191.3l-128-180.6h66.1l98.9,146.2L1101,10.7h64.5l-126.8,180l139.7,200.5h-67.7l-109.1-165L892,391.2
	h-64L966.2,191.3z"/>
<path class="st0" d="M1364.4,10.7h239.2v48.4H1416v119.3h174.7v48.4H1416v164.4h-51.6V10.7z"/>
<path class="st0" d="M2296.6,10.7h51.6v380.5h-51.6V10.7z"/>
<path class="st0" d="M2576.6,10.7h133.8c24.4,0,44.4,3.3,60.2,9.9s28.2,15,37.4,25.3c9.1,10.2,15.5,21.7,19.1,34.4s5.4,25,5.4,36.8
	c0,12.2-2.2,23.9-6.4,35.2c-4.3,11.3-10.5,21.5-18.5,30.6c-8.1,9.1-17.9,16.8-29.6,23.1c-11.6,6.3-24.6,10.1-39,11.6l108,173.6
	h-64.5l-96.7-167.7h-57.5v167.7h-51.6L2576.6,10.7L2576.6,10.7z M2628.2,178.3h67.7c10,0,20-0.8,29.8-2.4c9.9-1.6,18.6-4.6,26.3-8.9
	c7.7-4.3,13.9-10.5,18.5-18.5c4.7-8.1,7-18.5,7-31.4s-2.3-23.4-7-31.4c-4.7-8.1-10.8-14.2-18.5-18.5s-16.5-7.3-26.3-8.9
	c-9.9-1.6-19.8-2.4-29.8-2.4h-67.7V178.3z"/>
<polygon id="XMLID_1_" class="st0" points="2031.5,292 2081.2,391.2 2139.1,391.2 2084.4,289 "/>
</svg>
