<svg id="Layer_1" data-name="Layer 1" xmlns="http://www.w3.org/2000/svg" viewBox="0 0 1529.22 801.15"><defs><style>.cls-1,.cls-2{fill:none;stroke:#d0ffff;stroke-miterlimit:10;stroke-width:2px;}.cls-1{stroke-dasharray:15 20;}</style></defs><title>airplane_bottom</title><path class="cls-1" d="M1574.34,906.52c-136.14-15.17-238.95-57.06-304-89.93-137.47-69.47-178.18-135-196.25-180.75-7.93-20.08-27.64-70.13-8.47-95.22,16.32-21.35,55.31-15.62,80,0,17.25,10.9,42.3,35.93,40.79,62.6-2.74,48.3-91.1,76-118.52,84.64-221,69.38-485.67-146.09-566.42-211.6C421.32,411.18,307.8,304.49,196.38,139.65" transform="translate(-195.56 -139.09)"/><polyline class="cls-2" points="1424.92 748.48 1425.05 748.32 1425.14 748.22 1444.44 726.73 1526.49 786.47 1378.71 799.92 1405.54 770.05"/><polyline class="cls-2" points="1406.06 770.23 1405.63 770.08 1405.54 770.05 1405.74 769.83"/><polyline class="cls-2" points="1424.89 748.12 1424.92 748.48 1426.69 773.01"/><polyline class="cls-2" points="1405.63 770.08 1405.56 770.16 1406.06 770.23 1426.69 773.01 1526.49 786.47"/><polyline class="cls-2" points="1424.89 748.12 1425.14 748.22 1526.49 786.47"/></svg>