<svg id="Layer_1" data-name="Layer 1" xmlns="http://www.w3.org/2000/svg" xmlns:xlink="http://www.w3.org/1999/xlink" viewBox="0 0 527.11 116.8"><defs><style>.cls-1,.cls-2{fill:#fff;}.cls-2{font-size:100px;font-family:WorkSans-Medium, Work Sans;font-weight:500;}.cls-3{clip-path:url(#clip-path);}.cls-4{clip-path:url(#clip-path-2);}.cls-5{clip-path:url(#clip-path-3);}.cls-6{clip-path:url(#clip-path-4);}.cls-7{clip-path:url(#clip-path-5);}.cls-8{clip-path:url(#clip-path-6);}.cls-9{clip-path:url(#clip-path-7);}</style><clipPath id="clip-path" transform="translate(-658.51 -619.3)"><path class="cls-1" d="M898.92,672.84l17,29.28h-9.59l-16.81-29.2H870v29.2h-8.3V635.35h35.43a18.68,18.68,0,0,1,13.85,31.34A18.21,18.21,0,0,1,898.92,672.84Zm8.58-18.62a10.59,10.59,0,0,0-10.41-10.49H870v20.85h27.13a10.45,10.45,0,0,0,10.41-10.36Z"/></clipPath><clipPath id="clip-path-2" transform="translate(-658.51 -619.3)"><rect class="cls-1" x="840.77" y="635.35" width="8.3" height="66.73"/></clipPath><clipPath id="clip-path-3" transform="translate(-658.51 -619.3)"><polygon class="cls-1" points="815.95 673.57 830.52 702.12 821.66 702.12 805.42 669.28 815.95 673.57"/></clipPath><clipPath id="clip-path-4" transform="translate(-658.51 -619.3)"><polygon class="cls-1" points="764.03 635.35 764.03 643.73 730.59 643.73 730.59 663.69 755.65 663.69 755.65 672.07 730.59 672.07 730.59 702.12 722.29 702.12 722.29 702.08 722.29 635.35 764.03 635.35"/></clipPath><clipPath id="clip-path-5" transform="translate(-658.51 -619.3)"><polygon class="cls-1" points="711.92 635.35 690.18 668.75 711.92 702.08 701.88 702.08 685.15 676.45 668.47 702.12 658.51 702.12 680.17 668.79 658.51 635.35 668.51 635.35 685.2 661.02 701.88 635.35 711.92 635.35"/></clipPath><clipPath id="clip-path-6" transform="translate(-658.51 -619.3)"><polygon class="cls-1" points="796.41 635.36 814.15 668.76 802.89 664.63 797.95 641.35 802.08 664.47 796.98 668.85 796.46 637.99 796.01 668.89 790.71 664.51 795.12 641.15 789.89 664.59 778.64 668.76 796.41 635.36"/></clipPath><clipPath id="clip-path-7" transform="translate(-658.51 -619.3)"><polygon class="cls-1" points="787.51 668.98 770.78 702.35 762 702.35 776.94 673.8 787.51 668.98"/></clipPath></defs><title>apply_title</title><text class="cls-2" transform="translate(284.11 83)">2020</text><path class="cls-1" d="M898.92,672.84l17,29.28h-9.59l-16.81-29.2H870v29.2h-8.3V635.35h35.43a18.68,18.68,0,0,1,13.85,31.34A18.21,18.21,0,0,1,898.92,672.84Zm8.58-18.62a10.59,10.59,0,0,0-10.41-10.49H870v20.85h27.13a10.45,10.45,0,0,0,10.41-10.36Z" transform="translate(-658.51 -619.3)"/><g class="cls-3"><rect class="cls-1" x="194.74" y="16.04" width="71.22" height="66.71"/></g><rect class="cls-1" x="182.26" y="16.05" width="8.3" height="66.73"/><g class="cls-4"><rect class="cls-1" x="150.84" y="16.04" width="71.22" height="66.71"/></g><polygon class="cls-1" points="157.44 54.27 172.02 82.82 163.15 82.82 146.91 49.98 157.44 54.27"/><g class="cls-5"><rect class="cls-1" x="100.7" y="16.04" width="71.22" height="66.71"/></g><polygon class="cls-1" points="105.53 16.05 105.53 24.43 72.08 24.43 72.08 44.39 97.14 44.39 97.14 52.77 72.08 52.77 72.08 82.82 63.78 82.82 63.78 82.78 63.78 16.05 105.53 16.05"/><g class="cls-6"><rect class="cls-1" x="59.6" y="16.04" width="56.59" height="66.71"/></g><polygon class="cls-1" points="53.41 16.05 31.67 49.45 53.41 82.78 43.37 82.78 26.65 57.15 9.96 82.82 0 82.82 21.67 49.49 0 16.05 10 16.05 26.69 41.72 43.37 16.05 53.41 16.05"/><g class="cls-7"><rect class="cls-1" y="16.04" width="56.59" height="66.71"/></g><polygon class="cls-1" points="137.91 16.06 155.64 49.47 144.38 45.34 139.44 22.05 143.57 45.17 138.47 49.55 137.95 18.69 137.5 49.59 132.2 45.21 136.61 21.85 131.39 45.29 120.13 49.47 137.91 16.06"/><g class="cls-8"><rect class="cls-1" x="100.69" y="16.05" width="71.22" height="66.71"/><polygon class="cls-1" points="157.42 54.28 172 82.83 163.13 82.83 146.9 49.99 157.42 54.28"/></g><polygon class="cls-1" points="129 49.68 112.27 83.05 103.49 83.05 118.43 54.5 129 49.68"/><g class="cls-9"><rect class="cls-1" x="100.69" y="16.26" width="71.22" height="66.71"/><polygon class="cls-1" points="157.42 54.5 172 83.05 163.13 83.05 146.9 50.21 157.42 54.5"/><polygon class="cls-1" points="137.91 16.27 155.64 49.68 144.38 45.55 139.44 22.27 143.57 45.39 138.47 49.76 137.95 18.91 137.5 49.8 132.2 45.43 136.61 22.06 131.39 45.51 120.13 49.68 137.91 16.27"/></g></svg>