<svg id="dash_line_5" data-name="dash line 5" xmlns="http://www.w3.org/2000/svg" viewBox="0 0 1486.75 146.11"><defs><style>.cls-1{fill:none;stroke:#3da8ad;stroke-miterlimit:10;stroke-width:2px;stroke-dasharray:15 20;}</style></defs><title>dash_line_05</title><path class="cls-1" d="M1485.62,474.65a3004.72,3004.72,0,0,0-365,21c-98.71,11.81-164.86,24-313,40-254.36,27.46-318.21,7-350-34-17.08-22.06-38.56-68.23-23-86,9.23-10.54,31.95-11.62,47-1s22.43,33.05,15,44c-10.4,15.35-45.45,3.6-107-7-71.31-12.28-118.3-20.38-175-13-75.62,9.84-128.43,42-144,52a341.62,341.62,0,0,0-71,61" transform="translate(1.13 -406.2)"/></svg>