<svg xmlns="http://www.w3.org/2000/svg" viewBox="0 0 46.16 30.73"><defs><style>.cls-1{fill:#fff;}</style></defs><title>Asset 6</title><g id="Layer_2" data-name="Layer 2"><g id="Layer_2-2" data-name="Layer 2"><path class="cls-1" d="M46.14.89V.84a.81.81,0,0,0,0-.17s0,0,0,0A.77.77,0,0,0,46.07.4l0,0h0l0,0a.76.76,0,0,0-.17-.18l0,0A.74.74,0,0,0,45.63,0l-.09,0-.17,0h-.15L.61,9.23a.77.77,0,0,0-.2,1.43L13.19,17.4l2.24,12.44s0,0,0,0a.72.72,0,0,0,0,.18.71.71,0,0,0,0,.09.74.74,0,0,0,.08.21l0,0h0l0,0,.12.12,0,0,0,0,.15.08.06,0a.77.77,0,0,0,.21,0h.05a.76.76,0,0,0,.55-.24l8.51-5.68,8.91,5.79a.77.77,0,0,0,1.14-.38L46.11,1l0-.08V.89ZM37.24,5.8,18.81,19.35l-.08.08,0,0,0,.05,0,.06a.79.79,0,0,0-.07.14v0h0l-2.11,6.87-1.67-9.29ZM17.6,28.09l2.09-6.92L23,23.3l.93.61L20.72,26ZM40,2.66,13.89,16,3,10.3ZM34.24,28.79,22.4,21.1l-1.79-1.17,23.17-17Z"/></g></g></svg>