<?xml version="1.0" encoding="utf-8"?>
<!-- Generator: Adobe Illustrator 20.1.0, SVG Export Plug-In . SVG Version: 6.00 Build 0)  -->
<svg version="1.1" id="Layer_1" xmlns="http://www.w3.org/2000/svg" xmlns:xlink="http://www.w3.org/1999/xlink" x="0px" y="0px"
	 viewBox="0 0 752.9 198.9" style="enable-background:new 0 0 752.9 198.9;" xml:space="preserve">
<style type="text/css">
	.st0{fill:#FFFFFF;}
</style>
<path class="st0" d="M130.8,196.9l-48.2-74.2l-48.2,74.2H5.6l62.6-96.3L5.6,4h28.9l48.2,74.2L130.8,4h29l-62.8,96.5l62.8,96.3H130.8
	z"/>
<path class="st0" d="M213.8,28.2v57.7h72.3v24.2h-72.3v86.8h-24V4h120.5v24.2H213.8z"/>
<path class="st0" d="M531.9,196.9V4h24v192.8H531.9z"/>
<path class="st0" d="M721.1,196.9l-48.5-84.4h-56.3v84.4h-24V4h102.3c14.7,0,27.5,5.4,38.1,16.2c10.8,10.7,16.2,23.4,16.2,38.3
	c0,13.8-4.8,25.8-14.3,36.1c-9.4,10.4-21,16.3-34.7,17.7l49,84.6H721.1z M724.7,58.5c0-8.3-3-15.4-8.9-21.3c-6-6-13-8.9-21.2-8.9
	h-78.3v60.2h78.3c8.1,0,15.1-2.9,21.2-8.8C721.7,73.7,724.7,66.6,724.7,58.5z"/>
<polygon class="st0" points="347.7,114.4 304.5,196.9 329.9,196.9 378.2,100.5 "/>
<polygon class="st0" points="460.3,114.4 429.8,102 476.7,196.9 502.4,196.9 "/>
<g>
	<g>
		<polygon class="st0" points="400.2,20.8 387.4,88.2 402.7,100.9 404,11.6 405.5,100.7 420.3,88.1 408.3,21.4 422.6,88.6 
			455.1,100.5 403.9,4 352.6,100.5 385.1,88.5 		"/>
	</g>
</g>
</svg>
