<svg xmlns="http://www.w3.org/2000/svg" viewBox="0 0 1027.63 169.06"><defs><style>.cls-1{fill:none;stroke:#ffffef;stroke-miterlimit:10;stroke-width:2px;stroke-dasharray:12;}.cls-2{fill:#ffffef;}</style></defs><title>Asset 2</title><g id="Layer_2" data-name="Layer 2"><g id="Layer_1-2" data-name="Layer 1"><path class="cls-1" d="M179,108.79s-32.77,5.08-62.41,30.17S29,172.64.23,165.8"/><path class="cls-1" d="M911.4,94s57.71-11.31,70.08-48.41"/><path class="cls-2" d="M1027.62.89V.84a.81.81,0,0,0,0-.17s0,0,0,0a.77.77,0,0,0-.08-.22l0,0h0l0,0a.76.76,0,0,0-.17-.18l0,0a.74.74,0,0,0-.18-.09L1027,0l-.17,0h-.15L982.09,9.23a.77.77,0,0,0-.2,1.43l12.78,6.74,2.24,12.44s0,0,0,0a.72.72,0,0,0,0,.18.71.71,0,0,0,0,.09.74.74,0,0,0,.08.21l0,0h0l0,0,.12.12,0,0,0,0,.15.08.06,0a.77.77,0,0,0,.21,0h.05a.76.76,0,0,0,.55-.24l8.51-5.68,8.91,5.79a.77.77,0,0,0,1.14-.38L1027.58,1l0-.08V.89Zm-8.9,4.91-18.44,13.56-.08.08,0,0,0,.05,0,.06a.79.79,0,0,0-.07.14v0h0l-2.11,6.87-1.67-9.29Zm-19.64,22.3,2.09-6.92,3.26,2.12.93.61L1002.2,26Zm22.39-25.43L995.36,16,984.49,10.3Zm-5.75,26.13-11.84-7.69-1.79-1.17,23.17-17Z"/></g></g></svg>