<?xml version="1.0" encoding="utf-8"?>
<!-- Generator: Adobe Illustrator 19.0.0, SVG Export Plug-In . SVG Version: 6.00 Build 0)  -->
<svg version="1.1" id="Layer_1" xmlns="http://www.w3.org/2000/svg" xmlns:xlink="http://www.w3.org/1999/xlink" x="0px" y="0px"
	 viewBox="-83 47 208 208" style="enable-background:new -83 47 208 208;" xml:space="preserve">
<style type="text/css">
	.st0{fill:#008BFF;}
	.st1{fill:#FFFFFF;}
	.st2{fill:none;stroke:#FFFFFF;stroke-width:2;stroke-miterlimit:10;}
</style>
<rect id="XMLID_7_" x="-83" y="47" class="st0" width="208" height="208"/>
<g id="XMLID_1_">
	<path id="XMLID_6_" class="st1" d="M90.5,151.1c0,39.6-32.2,71.6-72,71.6c-13.6,0-26.2-3.7-37.1-10.2c-0.7-0.4-1.4-0.7-2-1.2
		c-1.1-1-1.8-119-1.5-119.3c0.5-0.6,1.2-0.8,1.9-1.2C-9,83.6,4.3,79.4,18.5,79.4C58.3,79.4,90.5,111.5,90.5,151.1z"/>
	<g id="XMLID_31_">
		<path id="XMLID_39_" class="st0" d="M-48.5,221.7v-19.6h15.2V96.9h-15.2V77.3H2.9c34,0,49.8,10.4,49.8,36.2
			c0,14.2-8,23.6-20.6,29.2c16.8,6.6,26.2,17.6,26.2,36.2c0,24-14.4,37.8-37.4,41.8c-9.4,1.6-25.4,1-31.6,1H-48.5z M-7.3,133.7H3.1
			c11,0,23.6-3.2,23.6-19.4c0-16.6-15-17.8-21.4-17.8H-7.3V133.7z M-7.3,202.1H3.5c17.2,0,28.8-5.4,28.8-24
			c0-22-18.8-24.8-24.2-24.8H-7.3V202.1z"/>
	</g>
	<g id="XMLID_2_">
		<g id="XMLID_33_">
			<line id="XMLID_38_" class="st2" x1="-33.4" y1="102.4" x2="-33.7" y2="196.1"/>
			<g id="XMLID_36_">
				<polygon id="XMLID_37_" class="st1" points="-36.8,104.9 -33.4,103.5 -30.1,104.9 -33.4,97 				"/>
			</g>
			<g id="XMLID_34_">
				<polygon id="XMLID_35_" class="st1" points="-37.1,193.6 -33.7,195 -30.4,193.6 -33.8,201.5 				"/>
			</g>
		</g>
	</g>
</g>
</svg>
