<?xml version="1.0" encoding="utf-8"?>
<!-- Generator: Adobe Illustrator 22.0.1, SVG Export Plug-In . SVG Version: 6.00 Build 0)  -->
<svg version="1.1" id="Layer_1" xmlns="http://www.w3.org/2000/svg" xmlns:xlink="http://www.w3.org/1999/xlink" x="0px" y="0px"
	 viewBox="0 0 1200 489.6" style="enable-background:new 0 0 1200 489.6;" xml:space="preserve">
<style type="text/css">
	.st0{clip-path:url(#SVGID_2_);}
	.st1{opacity:0.1;fill:#FFCD23;enable-background:new    ;}
	.st2{opacity:0.1;fill:#AED24F;enable-background:new    ;}
	.st3{fill:#F05725;}
	.st4{fill:none;}
	.st5{fill:none;stroke:#FFCD23;stroke-miterlimit:10;}
</style>
<title>Asset 16</title>
<g id="Layer_2_1_">
	<g id="Layer_2-2">
		<g>
			<defs>
				<rect id="SVGID_1_" width="1200" height="489.6"/>
			</defs>
			<clipPath id="SVGID_2_">
				<use xlink:href="#SVGID_1_"  style="overflow:visible;"/>
			</clipPath>
			<g class="st0">
				<polygon class="st1" points="119.9,-623.3 -598.7,-623.3 -957.9,-1 -598.7,621.3 119.9,621.3 479.2,-1 				"/>
				<polygon class="st2" points="1211,-23.2 492.5,-23.2 133.2,599.1 492.5,1221.4 1211,1221.4 1570.3,599.1 				"/>
				<path class="st3" d="M183.8,414.5l1-1.7l1.8,0.9v-0.1c-0.6-1.6-0.6-3.4,0.2-4.9c0.8-1.6,2.5-2.4,4.2-1.9c-0.6-2-0.8-3.8,0-5.3
					c1.4-2.5,3.8-2.7,6.8-0.9l7.6,4.5l-1.2,2l-7.3-4.3c-2.2-1.3-3.6-1.2-4.5,0.3c-0.6,0.9-0.5,2.2,0.1,4.1l8.6,5.1l-1.2,2l-7.3-4.3
					c-2.2-1.3-3.6-1.2-4.5,0.3c-0.5,0.9-0.5,2.2,0.1,4.1l8.6,5.1l-1.2,2L183.8,414.5z"/>
				<path class="st3" d="M201.3,398.7c-4-2.4-4.7-6.3-3-9.2s5.6-4.2,9.5-1.8s4.7,6.3,3,9.2S205.3,401,201.3,398.7z M206.6,389.7
					c-2.7-1.6-5.4-1.3-6.6,0.7s-0.2,4.5,2.6,6.2s5.4,1.3,6.6-0.7S209.4,391.3,206.6,389.7L206.6,389.7z"/>
				<path class="st3" d="M203.7,380.9l1-1.7l2.3,1.1v-0.1c-1-1.7-1.2-3.5-0.5-4.8c0.2-0.4,0.6-0.8,1-1.1l1.6,1.4
					c-0.4,0.3-0.6,0.6-0.9,1c-0.6,1-0.6,2.6,1,4.6l7.7,4.5l-1.2,2L203.7,380.9z"/>
				<path class="st3" d="M214.1,377.1c-3.9-2.3-4.7-6.3-3.1-9.1c1.8-3,5-3.5,8.4-1.4c0.4,0.2,0.7,0.5,1.1,0.8l-4.8,8
					c2.6,1.3,5.2,0.8,6.5-1.5c0.6-1.1,0.9-2.3,0.8-3.5l1.8,0.1c0.1,1.6-0.3,3.3-1.1,4.7C221.8,378.2,218.1,379.4,214.1,377.1z
					 M218.1,368.2c-2.4-1.4-4.3-1.1-5.4,0.8c-1,1.7-0.5,4,1.7,5.6L218.1,368.2z"/>
				<path class="st3" d="M227.2,360.1l-6.6-3.9l-1,1.8l-1.5-0.9l1-1.9l-3.2-2.2l1-1.7l3.3,2l1.9-3.2l1.6,1l-1.9,3.2l6.6,3.9
					c1.5,0.9,2.6,0.9,3.4-0.5c0.3-0.5,0.4-1,0.5-1.5l1.8,0.5c-0.2,0.9-0.4,1.7-0.9,2.5C231.7,361.6,229.6,361.5,227.2,360.1z"/>
				<path class="st3" d="M218.1,344l1.2-2l4.8,2.8l2.4,1.5c-0.6-1.7-0.4-3.5,0.4-5.1c1.5-2.5,3.8-2.7,6.8-0.9l7.6,4.5l-1.2,2
					l-7.3-4.3c-2.2-1.3-3.6-1.2-4.5,0.4c-0.7,1.2-0.6,2.4-0.1,4.3l8.6,5.1l-1.2,2L218.1,344z"/>
				<path class="st3" d="M240,339.9c-2.6-1.5-2.6-4.5-0.1-10c-1.5-0.9-3.3-1.3-4.5,0.7c-0.7,1.3-1,2.8-0.8,4.3h-1.8
					c-0.1-1.9,0.3-3.9,1.2-5.6c1.7-2.9,4.4-3,7.3-1.2l7.3,4.3l-1,1.7l-1.5-0.7v0.1c0.4,1.7,0.2,3.5-0.6,5c-0.9,1.9-3.2,2.6-5,1.7
					C240.2,340.1,240.1,340,240,339.9z M244.5,332.7l-3.3-2c-1.9,4.3-1.7,6.2-0.2,7.1c1.3,0.8,2.4,0.2,3.1-1
					S244.8,334.5,244.5,332.7L244.5,332.7z"/>
				<path class="st3" d="M238.9,321.6l1-1.7l1.8,0.8v-0.1c-0.6-1.7-0.5-3.6,0.3-5.2c1.5-2.5,3.8-2.7,6.8-0.9l7.6,4.5l-1.2,2
					l-7.3-4.3c-2.2-1.3-3.6-1.2-4.5,0.4c-0.7,1.2-0.6,2.4-0.1,4.3l8.6,5.1l-1.2,2L238.9,321.6z"/>
				<path class="st3" d="M265.8,314.4l-1.4-1.3c0.3-0.2,0.5-0.5,0.7-0.8c0.8-1.3,0.2-2.8-1-4.2l-0.7-0.8l-14.8-2.3l1.2-2.1l8,1.5
					c1.3,0.2,2.7,0.6,4,0.8l0.1-0.1c-0.9-1-1.9-2-2.8-3l-5.3-6l1.2-2l10.2,12.1c1.9,2.2,2.9,4.5,1.5,6.9
					C266.5,313.6,266.2,314.1,265.8,314.4z"/>
				<path class="st3" d="M261.9,296.3c-4-2.4-4.7-6.3-3-9.2s5.6-4.2,9.5-1.8s4.7,6.3,3,9.2S265.9,298.7,261.9,296.3z M267.2,287.3
					c-2.7-1.6-5.4-1.3-6.6,0.7s-0.2,4.5,2.6,6.2s5.4,1.3,6.6-0.7S270,289,267.2,287.3L267.2,287.3z"/>
				<path class="st3" d="M271.8,283.2l-7.6-4.5l1.2-2l7.3,4.3c2.2,1.3,3.6,1.2,4.5-0.4c0.7-1.2,0.6-2.4-0.1-4.4l-8.4-5l1.2-2
					l11.9,7.1l-1,1.7l-2-0.9v0.1c0.8,1.7,0.7,3.6-0.2,5.2C277.1,284.9,274.9,285,271.8,283.2z"/>
				<path class="st3" d="M272.2,265.2l1-1.7l2.3,1.1v-0.1c-1-1.7-1.3-3.5-0.5-4.9c0.2-0.4,0.6-0.8,1-1.1l1.5,1.4
					c-0.3,0.3-0.6,0.6-0.9,1c-0.6,1-0.6,2.6,1,4.6l7.7,4.5l-1.2,2L272.2,265.2z"/>
				<path class="st3" d="M288.6,257.8c-2.6-1.5-2.6-4.5-0.1-10c-1.5-0.9-3.3-1.3-4.5,0.7c-0.7,1.3-1,2.8-0.8,4.3h-1.8
					c-0.1-1.9,0.3-3.9,1.2-5.6c1.7-2.9,4.4-3,7.4-1.2l7.3,4.3l-1,1.7l-1.5-0.7v0.1c0.4,1.7,0.2,3.5-0.6,5c-0.9,1.9-3.2,2.6-5,1.7
					C288.9,258,288.7,257.9,288.6,257.8z M293.1,250.6l-3.3-2c-1.9,4.3-1.7,6.2-0.2,7.1c1,0.6,2.3,0.4,2.9-0.6
					c0.1-0.1,0.1-0.3,0.2-0.4C293.4,253.4,293.5,252,293.1,250.6z"/>
				<path class="st3" d="M286.5,241.2l1.2-2.1l8.1,1.8c1.4,0.3,2.8,0.7,4.2,1l0.1-0.1l-2.9-3.2l-5.4-6.3l1.2-2l9.4,11.3l-1.4,2.3
					L286.5,241.2z"/>
				<path class="st3" d="M299.7,232.5c-3.9-2.3-4.7-6.3-3.1-9.1c1.8-3,5-3.5,8.4-1.5c0.4,0.2,0.8,0.5,1.1,0.8l-4.8,8
					c2.6,1.3,5.2,0.8,6.5-1.5c0.6-1.1,0.9-2.3,0.8-3.5l1.8,0.1c0.1,1.6-0.3,3.3-1.1,4.7C307.4,233.7,303.6,234.9,299.7,232.5z
					 M303.7,223.6c-2.4-1.4-4.3-1.1-5.4,0.8c-1,1.7-0.5,4,1.7,5.6L303.7,223.6z"/>
				<path class="st3" d="M301.5,216l1-1.7l2.3,1.1v-0.1c-1-1.7-1.3-3.5-0.5-4.8c0.2-0.5,0.6-0.8,1-1.1l1.5,1.4
					c-0.3,0.3-0.6,0.6-0.9,1c-0.6,1-0.6,2.6,1,4.6l7.7,4.5l-1.2,2L301.5,216z"/>
				<path class="st3" d="M314.5,214c-2.6-1.5-2.6-4.5-0.1-10c-1.5-0.9-3.3-1.3-4.5,0.7c-0.7,1.3-1,2.8-0.8,4.3h-1.8
					c-0.1-1.9,0.3-3.9,1.2-5.6c1.7-2.9,4.4-3,7.3-1.2l7.3,4.3l-1,1.7l-1.5-0.7v0.1c0.4,1.7,0.2,3.5-0.6,5c-0.9,1.9-3.2,2.6-5.1,1.7
					C314.8,214.2,314.7,214.1,314.5,214z M319.1,206.8l-3.3-2c-1.9,4.3-1.7,6.2-0.2,7.1c1.4,0.8,2.4,0.2,3.1-1
					S319.4,208.5,319.1,206.8z"/>
				<path class="st3" d="M327.1,205c-1.1-0.8-1.7-2-1.7-3.3l-0.1-0.1c-0.8,0.4-1.8,0.4-2.6-0.1c-0.9-0.6-1.4-1.6-1.4-2.6l-0.1-0.1
					c-1.4,0.5-2.9,0.4-4.1-0.3c-2.3-1.4-3.1-4.4-1.8-6.7c0.1-0.1,0.1-0.2,0.2-0.3c0.3-0.6,0.8-1.1,1.3-1.5l2.5-4.2l1.6,0.9l-1.4,2.4
					c1-0.2,2.1-0.1,3,0.5c2.3,1.3,3.1,4.2,1.8,6.5c-0.1,0.1-0.1,0.2-0.2,0.3c-0.4,0.6-0.9,1.1-1.5,1.5c0.1,0.7,0.4,1.3,1,1.6
					c0.8,0.5,1.6,0.3,2.5-1.3l1.4-2.3c1.6-2.8,3.3-3.7,5.3-2.5c2.2,1.3,2.7,4.8,0.6,8.5C331.5,204.9,329.2,206.2,327.1,205z
					 M321.3,191.4c-1.2-1.1-3.1-1-4.2,0.2c-1.1,1.2-1,3.1,0.2,4.2c0.3,0.3,0.6,0.5,1,0.6c1.2,1.1,3.1,1,4.2-0.2
					c1.1-1.2,1-3.1-0.2-4.2C322,191.8,321.7,191.6,321.3,191.4z M331.8,195.6c-1.1-0.7-2,0-2.9,1.5l-1.2,2.1c-0.3,0.5-0.7,1-1.1,1.4
					c0,1,0.5,1.9,1.3,2.4c1.3,0.8,2.8,0,4.1-2.2S333.1,196.4,331.8,195.6L331.8,195.6z"/>
				<path class="st3" d="M326.1,188c-3.9-2.3-4.7-6.3-3.1-9.1c1.8-3,5-3.5,8.4-1.4c0.4,0.2,0.8,0.5,1.1,0.8l-4.8,8
					c2.6,1.3,5.2,0.8,6.5-1.5c0.6-1.1,0.9-2.3,0.8-3.5l1.8,0.1c0.1,1.6-0.3,3.3-1.1,4.7C333.8,189.2,330,190.4,326.1,188z
					 M330.1,179.1c-2.4-1.4-4.3-1.1-5.4,0.8c-1,1.7-0.5,4,1.7,5.6L330.1,179.1z"/>
				<path class="st3" d="M336.1,171c-4-2.3-4.7-6.4-2.9-9.5c0.8-1.3,2-2.3,3.5-2.7l0.7,1.8c-1,0.2-1.9,0.9-2.4,1.7
					c-1.3,2.2-0.4,4.8,2.4,6.5s5.4,1.2,6.8-1c0.6-1.1,0.7-2.3,0.5-3.5l1.9-0.1c0.3,1.6,0.1,3.3-0.8,4.8
					C343.8,172.3,340.1,173.3,336.1,171z"/>
				<path class="st3" d="M345.6,161.6c-2.6-1.5-2.6-4.5-0.1-10c-1.5-0.9-3.3-1.3-4.5,0.7c-0.7,1.3-1,2.8-0.8,4.3h-1.8
					c-0.1-1.9,0.3-3.9,1.2-5.6c1.7-2.9,4.4-3,7.3-1.2l7.3,4.3l-1,1.7l-1.5-0.7v0.1c0.4,1.7,0.2,3.5-0.6,5c-0.9,1.9-3.2,2.6-5,1.7
					C345.8,161.8,345.7,161.7,345.6,161.6z M350.1,154.4l-3.3-2c-1.9,4.3-1.7,6.2-0.2,7.1c1.3,0.8,2.4,0.2,3.1-1
					C350.4,157.2,350.5,155.7,350.1,154.4L350.1,154.4z"/>
				<path class="st3" d="M344.5,143.3l1-1.7l2.3,1.1v-0.1c-1-1.7-1.2-3.5-0.5-4.8c0.2-0.5,0.6-0.8,1-1.1l1.6,1.4
					c-0.4,0.3-0.7,0.6-0.9,1c-0.6,1-0.6,2.6,1,4.6l7.7,4.5l-1.2,2L344.5,143.3z"/>
				<path class="st3" d="M354.9,139.4c-3.9-2.3-4.7-6.3-3.1-9.1c1.8-3,5-3.5,8.4-1.5c0.4,0.2,0.8,0.5,1.1,0.8l-4.8,8
					c2.6,1.3,5.2,0.8,6.5-1.5c0.6-1.1,0.9-2.3,0.8-3.5l1.8,0.1c0.1,1.6-0.3,3.3-1.1,4.7C362.6,140.6,358.8,141.7,354.9,139.4z
					 M358.9,130.5c-2.4-1.4-4.3-1.1-5.4,0.8c-1,1.7-0.5,4,1.7,5.6L358.9,130.5z"/>
				<path class="st3" d="M362.1,127.2c-3.9-2.3-4.7-6.3-3.1-9.1c1.8-3,5-3.5,8.4-1.5c0.4,0.2,0.8,0.5,1.1,0.8l-4.8,8
					c2.6,1.3,5.2,0.8,6.5-1.5c0.6-1.1,0.9-2.3,0.8-3.5l1.8,0.1c0.1,1.6-0.3,3.3-1.1,4.7C369.8,128.4,366,129.6,362.1,127.2z
					 M366.1,118.3c-2.4-1.4-4.3-1.1-5.4,0.8c-1,1.7-0.5,4,1.7,5.6L366.1,118.3z"/>
				<path class="st3" d="M363.8,110.7l1-1.7l2.3,1.1v-0.1c-1-1.7-1.3-3.5-0.5-4.8c0.2-0.5,0.6-0.8,1-1.1l1.5,1.4
					c-0.3,0.3-0.6,0.6-0.9,1c-0.6,1-0.6,2.6,1,4.6l7.7,4.5l-1.2,2L363.8,110.7z"/>
				<path class="st3" d="M370.1,95.8c-2.4-1.4-3.3-3.5-1.9-5.8c0.4-0.7,0.9-1.3,1.6-1.7l1.3,1.3c-0.4,0.3-0.8,0.7-1.1,1.2
					c-0.7,1.1-0.2,2.1,1.3,3.1l13.8,8.2l-1.2,2L370.1,95.8z M371.1,98.6l0.9-1.8l2.6-4.5l1.6,1l-3.7,6.2L371.1,98.6z"/>
				<path class="st3" d="M384.1,96.6c-2.6-1.5-2.6-4.5-0.1-10c-1.5-0.9-3.3-1.3-4.5,0.7c-0.7,1.3-1,2.8-0.8,4.3h-1.8
					c-0.1-1.9,0.3-3.9,1.2-5.6c1.7-2.9,4.4-3,7.4-1.2l7.3,4.3l-1,1.7l-1.5-0.7v0.1c0.4,1.7,0.2,3.5-0.6,5c-0.9,1.9-3.2,2.6-5,1.7
					C384.3,96.7,384.2,96.6,384.1,96.6z M388.6,89.3l-3.3-2c-1.9,4.3-1.7,6.2-0.2,7.1c1,0.6,2.3,0.4,2.9-0.6
					c0.1-0.1,0.1-0.3,0.2-0.4C388.9,92.4,388.9,91.1,388.6,89.3L388.6,89.3z"/>
				<path class="st3" d="M379.1,76.4c-0.8-0.4-1.1-1.4-0.7-2.2s1.4-1.1,2.2-0.7s1.1,1.4,0.7,2.2c0,0,0,0.1,0,0.1
					C380.8,76.5,379.9,76.8,379.1,76.4C379.1,76.4,379.1,76.4,379.1,76.4z M383.1,78.2l1.2-2l11.9,7.1l-1.2,2L383.1,78.2z"/>
				<path class="st3" d="M386.6,72.2l1-1.7l2.3,1.1v-0.1c-1-1.7-1.2-3.5-0.5-4.8c0.2-0.5,0.6-0.8,1-1.1L392,67
					c-0.4,0.3-0.7,0.6-0.9,1c-0.6,1-0.6,2.6,1,4.6l7.7,4.5l-1.2,2L386.6,72.2z"/>
				<path class="st3" d="M401.3,71.8c-0.8-0.5-1-1.6-0.5-2.4c0.5-0.8,1.6-1,2.4-0.5c0.8,0.5,1,1.5,0.5,2.3
					C403.2,72.1,402.1,72.3,401.3,71.8C401.3,71.8,401.3,71.8,401.3,71.8z"/>
				<rect x="1" y="-1" class="st4" width="1200" height="505.7"/>
				<line class="st5" x1="182.2" y1="512.7" x2="482.9" y2="-7"/>
				<line class="st5" x1="189.9" y1="512.2" x2="490.6" y2="-7.6"/>
			</g>
		</g>
	</g>
</g>
</svg>
