<?xml version="1.0" encoding="utf-8"?>
<!-- Generator: Adobe Illustrator 19.0.0, SVG Export Plug-In . SVG Version: 6.00 Build 0)  -->
<svg version="1.1" id="Layer_1" xmlns="http://www.w3.org/2000/svg" xmlns:xlink="http://www.w3.org/1999/xlink" x="0px" y="0px"
	 viewBox="0 0 300 300" style="enable-background:new 0 0 300 300;" xml:space="preserve">
<style type="text/css">
	.st0{fill:#473899;}
	.st1{fill:#FFFFFF;}
</style>
<rect id="XMLID_7_" class="st0" width="300" height="300"/>
<g>
	<g>
		<polygon id="XMLID_6_" class="st1" points="114.9,71.2 114.9,95.6 108.8,95.6 108.8,71.2 75.3,71.2 75.3,144.4 108.8,144.4 
			108.8,120 114.9,120 114.9,144.4 148.5,144.4 148.5,71.2 		"/>
		<polygon id="XMLID_5_" class="st1" points="154.6,144.4 191.3,71.2 227.8,144.4 		"/>
		<g>
			<polygon id="XMLID_4_" class="st1" points="154.5,229 154.5,155.8 227.8,155.8 206.5,192.4 227.8,229 			"/>
			<path id="XMLID_3_" class="st1" d="M133.2,192.4l14.4-22.6c-7.2-10.4-19.1-17.1-32.6-17.1c-21.9,0-39.7,17.8-39.7,39.7
				s17.8,39.7,39.7,39.7c13.5,0,25.4-6.8,32.6-17.1L133.2,192.4z"/>
		</g>
	</g>
	<path class="st1" d="M253.6,255H46.4V45h207.2V255z M54.6,248.1h190.7V51.9H54.6L54.6,248.1L54.6,248.1z"/>
</g>
</svg>
