<svg xmlns="http://www.w3.org/2000/svg" viewBox="0 0 180.77 168.56"><defs><style>.cls-1,.cls-2{fill:none;}.cls-2{stroke:#ffffef;stroke-miterlimit:10;stroke-width:2px;stroke-dasharray:12;}.cls-3{fill:#ffffef;}</style></defs><title>Asset 2</title><g id="Layer_2" data-name="Layer 2"><g id="Layer_1-2" data-name="Layer 1"><rect class="cls-1" y="0.5" width="180.77" height="168.06"/><path class="cls-2" d="M64.54,94s57.71-11.31,70.08-48.41"/><path class="cls-3" d="M180.76.89V.84a.81.81,0,0,0,0-.17h0a.77.77,0,0,0-.08-.22h0a.76.76,0,0,0-.17-.18h0a.74.74,0,0,0-.18-.09L180.14,0h-.32L135.23,9.23a.77.77,0,0,0-.2,1.43l12.78,6.74,2.24,12.44h0a.72.72,0,0,0,0,.18.71.71,0,0,0,0,.09.74.74,0,0,0,.08.21h0l.12.12h0l.15.08h.32a.76.76,0,0,0,.55-.24l8.51-5.68,8.91,5.79a.77.77,0,0,0,1.14-.38L180.72,1V.89Zm-8.9,4.91L153.42,19.36l-.08.08h0v.11a.79.79,0,0,0-.07.14h0l-2.11,6.87-1.67-9.29ZM152.22,28.1l2.09-6.92,3.26,2.12.93.61L155.34,26ZM174.61,2.67,148.5,16l-10.87-5.7ZM168.86,28.8,157,21.11l-1.79-1.17,23.17-17Z"/></g></g></svg>