<?xml version="1.0" encoding="utf-8"?>
<!-- Generator: Adobe Illustrator 22.0.1, SVG Export Plug-In . SVG Version: 6.00 Build 0)  -->
<svg version="1.1" id="Layer_1" xmlns="http://www.w3.org/2000/svg" xmlns:xlink="http://www.w3.org/1999/xlink" x="0px" y="0px"
	 viewBox="0 0 1200 730.1" style="enable-background:new 0 0 1200 730.1;" xml:space="preserve">
<style type="text/css">
	.st0{clip-path:url(#SVGID_2_);}
	.st1{fill:#FFFCF7;}
	.st2{fill:#AED24F;}
	.st3{fill:#FFCD23;}
	.st4{fill:none;}
	.st5{opacity:0.85;fill:#40B582;enable-background:new    ;}
	.st6{opacity:0.85;fill:#FFCD23;enable-background:new    ;}
	.st7{opacity:0.85;fill:#F7943F;enable-background:new    ;}
	.st8{opacity:0.85;fill:#AED24F;enable-background:new    ;}
	.st9{fill:#FFFFFF;}
	.st10{opacity:0.85;}
	.st11{fill:none;stroke:#AED24F;stroke-miterlimit:10;}
	.st12{fill:none;stroke:#FFCD23;stroke-miterlimit:10;}
</style>
<title>Asset 15</title>
<g id="Layer_2_1_">
	<g id="Layer_2-2">
		<g>
			<g>
				<defs>
					<rect id="SVGID_1_" width="1200" height="730.1"/>
				</defs>
				<clipPath id="SVGID_2_">
					<use xlink:href="#SVGID_1_"  style="overflow:visible;"/>
				</clipPath>
				<g class="st0">
					<rect x="0.9" class="st1" width="1200" height="730.1"/>
					<path class="st2" d="M519.1,552.8l1.7-0.1h4.5v1.7h-6.2V552.8z M520.7,550.8c0-2.4,1.1-4,3.5-4c0.7,0,1.4,0.2,2,0.4l-0.4,1.5
						c-0.4-0.2-0.9-0.3-1.3-0.3c-1.1,0-1.7,0.8-1.7,2.3v13.8h-2L520.7,550.8z"/>
					<path class="st2" d="M526.5,558.6c0-3.9,2.6-6.3,5.4-6.3c3.1,0,4.8,2.2,4.8,5.6c0,0.4,0,0.8-0.1,1.2h-8c0.1,2.5,1.7,4.2,4,4.2
						c1.1,0,2.1-0.4,3-1l0.7,1.3c-1.2,0.8-2.6,1.2-4,1.2C529,564.9,526.5,562.5,526.5,558.6z M534.8,557.6c0-2.4-1.1-3.7-2.9-3.7
						c-1.7,0-3.2,1.3-3.4,3.7H534.8z"/>
					<path class="st2" d="M541.4,563.3L541.4,563.3l-0.3,1.2h-1.6V547h2v4.8l-0.1,2.1c1-1,2.4-1.6,3.8-1.7c3.1,0,4.7,2.4,4.7,6.1
						c0,4.1-2.4,6.5-5.2,6.5C543.5,564.8,542.3,564.2,541.4,563.3z M547.9,558.4c0-2.6-0.9-4.4-3.2-4.4c-1.2,0.1-2.4,0.7-3.2,1.6
						v6.3c0.8,0.7,1.8,1.2,2.9,1.2C546.4,563.2,547.9,561.4,547.9,558.4L547.9,558.4z"/>
					<path class="st2" d="M553.1,552.6h1.7l0.2,2.2h0.1c0.6-1.4,1.9-2.3,3.4-2.5c0.4,0,0.9,0.1,1.3,0.2l-0.4,1.8
						c-0.4-0.1-0.8-0.2-1.2-0.2c-1,0-2.2,0.7-3,2.8v7.7h-2L553.1,552.6z"/>
					<path class="st2" d="M561.5,560.2v-7.6h2v7.3c0,2.2,0.7,3.2,2.3,3.2c1.2,0,2.1-0.6,3.2-2v-8.5h2v12h-1.7l-0.2-1.9H569
						c-0.9,1.3-2.4,2.1-3.9,2.2C562.6,564.9,561.5,563.2,561.5,560.2z"/>
					<path class="st2" d="M574.3,561.5c0-2.6,2.2-3.9,7.3-4.5c0-1.5-0.5-3-2.5-3c-1.3,0.1-2.5,0.5-3.6,1.3l-0.8-1.4
						c1.4-1,3-1.5,4.7-1.6c2.9,0,4.1,1.9,4.1,4.9v7.3h-1.7l-0.2-1.4h-0.1c-1.1,1-2.5,1.6-3.9,1.7c-1.8,0.1-3.4-1.2-3.5-3
						C574.3,561.8,574.3,561.6,574.3,561.5z M581.6,561.7v-3.3c-4,0.5-5.4,1.5-5.4,3c0,1.4,0.9,1.9,2.1,1.9
						C579.6,563.2,580.8,562.6,581.6,561.7L581.6,561.7z"/>
					<path class="st2" d="M587.4,552.6h1.7l0.2,2.2h0.1c0.6-1.4,1.9-2.3,3.4-2.5c0.4,0,0.9,0.1,1.3,0.2l-0.4,1.8
						c-0.4-0.1-0.8-0.2-1.2-0.2c-1,0-2.2,0.7-3,2.8v7.7h-2L587.4,552.6z"/>
					<path class="st2" d="M595.3,569.5l0.4-1.6c0.3,0.1,0.6,0.2,0.9,0.2c1.4,0,2.2-1.1,2.7-2.6l0.3-0.9l-4.8-12h2.1l2.4,6.6
						c0.4,1,0.8,2.3,1.2,3.4h0.1c0.3-1.1,0.7-2.3,1-3.4l2.1-6.6h2l-4.5,12.9c-0.9,2.4-2.1,4.2-4.5,4.2
						C596.3,569.7,595.8,569.6,595.3,569.5z"/>
					<path class="st2" d="M612.1,557.3c0-6.3,2.9-8.7,6-8.7c1.4,0,2.8,0.6,3.8,1.7l-1.1,1.3c-0.6-0.8-1.6-1.2-2.6-1.2
						c-2.2,0-4.1,1.8-4.1,7c0,3.8,1.2,5.9,3.5,5.9c1.5,0,2.7-1.4,2.7-3.4s-1-3.3-2.9-3.3c-1.4,0.1-2.7,1-3.4,2.2l-0.1-1.6
						c0.9-1.3,2.3-2,3.8-2.1c2.7,0,4.5,1.6,4.5,4.8c0.1,2.6-1.8,4.8-4.5,5c-0.1,0-0.1,0-0.2,0C614.5,564.9,612.1,562.4,612.1,557.3z
						"/>
					<path class="st2" d="M624.3,567.6c1.3-0.4,2.2-1.6,2.2-3l-0.2-1.8l1,1.5c-0.3,0.3-0.6,0.4-1,0.4c-0.8,0.1-1.4-0.5-1.5-1.3v-0.1
						c0-0.8,0.6-1.4,1.4-1.4h0.1c1.1,0,1.7,0.9,1.7,2.4c0,2.1-1.3,3.9-3.2,4.6L624.3,567.6z"/>
					<path class="st2" d="M635.2,563.4c4.7-4.7,7.4-7.5,7.4-10.1c0.2-1.5-0.9-2.9-2.4-3.1c-0.2,0-0.4,0-0.6,0
						c-1.3,0.1-2.5,0.8-3.3,1.9L635,551c1.1-1.5,2.9-2.3,4.8-2.4c2.4-0.2,4.5,1.6,4.7,4c0,0.2,0,0.4,0,0.6c0,3-2.7,5.9-6.4,9.8
						c0.9-0.1,1.8-0.1,2.6-0.1h4.5v1.7h-10.1L635.2,563.4z"/>
					<path class="st2" d="M647.5,556.7c0-5.2,1.9-8.1,5-8.1s5,2.8,5,8.1s-1.9,8.2-5,8.2S647.5,561.9,647.5,556.7z M655.6,556.7
						c0-4.6-1.2-6.4-3.1-6.4s-3.1,1.8-3.1,6.4s1.2,6.6,3.1,6.6S655.6,561.3,655.6,556.7L655.6,556.7z"/>
					<path class="st2" d="M660.5,562.9h3.6v-11.5h-2.9V550c1.2-0.2,2.3-0.6,3.3-1.2h1.5v14h3.2v1.7h-8.9v-1.6H660.5z"/>
					<path class="st2" d="M679.7,550.6h-7.8v-1.7H682v1.2c-3.7,4.8-4.5,8.3-4.8,14.4h-2.1C675.5,558.7,676.6,554.9,679.7,550.6z"/>
					<path class="st2" d="M542.3,592.4h3.6v-11.5H543v-1.3c1.2-0.2,2.3-0.6,3.3-1.2h1.5v14h3.2v1.7h-8.8L542.3,592.4L542.3,592.4z"
						/>
					<path class="st2" d="M553.7,586.2c0-5.2,1.9-8.1,5-8.1s5,2.8,5,8.1s-1.9,8.2-5,8.2S553.7,591.4,553.7,586.2z M561.7,586.2
						c0-4.6-1.2-6.4-3.1-6.4s-3.1,1.8-3.1,6.4s1.2,6.6,3.1,6.6S561.7,590.8,561.7,586.2z"/>
					<path class="st2" d="M566.1,591c0-2.6,2.2-3.9,7.3-4.5c0-1.5-0.5-3-2.5-3c-1.3,0.1-2.5,0.5-3.6,1.3l-0.8-1.4
						c1.4-1,3-1.5,4.7-1.6c2.9,0,4.1,1.9,4.1,4.9v7.3h-1.7l-0.2-1.4h-0.1c-1.1,1-2.5,1.6-4,1.7c-1.8,0.1-3.3-1.3-3.4-3.1
						C566.1,591.2,566.1,591.1,566.1,591z M573.4,591.2v-3.3c-4,0.5-5.4,1.5-5.4,3c0,1.4,0.9,1.9,2.1,1.9
						C571.4,592.6,572.6,592.1,573.4,591.2z"/>
					<path class="st2" d="M579.2,582.1h1.7l0.2,1.7h0.1c0.9-1.2,2.3-1.9,3.7-2c1.5-0.1,2.9,0.8,3.3,2.3c1.2-1.3,2.5-2.3,3.9-2.3
						c2.5,0,3.6,1.6,3.6,4.7v7.6h-2v-7.3c0-2.2-0.7-3.2-2.2-3.2c-0.9,0-1.9,0.6-3,1.8v8.7h-2v-7.3c0-2.2-0.7-3.2-2.2-3.2
						c-0.9,0-1.9,0.6-3,1.8v8.7h-2L579.2,582.1z"/>
					<path class="st2" d="M603.5,587.1h5.6v1.5h-5.6V587.1z"/>
					<path class="st2" d="M622.3,583.6c0-0.8,0.1-2.2,0.1-3h-0.1c-0.4,0.8-0.8,1.4-1.3,2.2l-3.7,5.4h9v1.6h-11.1v-1.3l6.7-10h2.2
						v15.7h-1.9L622.3,583.6z"/>
					<path class="st2" d="M629.1,582.1h1.7l0.2,1.4h0.1c1-1,2.4-1.6,3.8-1.7c3.1,0,4.7,2.4,4.7,6.1c0,4.1-2.4,6.5-5.2,6.5
						c-1.2-0.1-2.4-0.6-3.3-1.4l0.1,2.1v4h-2L629.1,582.1z M637.4,587.9c0-2.6-0.9-4.4-3.1-4.4c-1.2,0.1-2.4,0.7-3.2,1.6v6.3
						c0.8,0.7,1.8,1.2,2.9,1.2C636,592.7,637.5,590.9,637.4,587.9L637.4,587.9z"/>
					<path class="st2" d="M642.7,582.1h1.7l0.2,1.7h0.1c0.9-1.2,2.3-1.9,3.7-2c1.5-0.1,2.9,0.8,3.3,2.3c1.2-1.3,2.5-2.3,3.9-2.3
						c2.5,0,3.6,1.6,3.6,4.7v7.6h-2v-7.3c0-2.2-0.7-3.2-2.2-3.2c-0.9,0-1.9,0.6-3,1.8v8.7h-2v-7.3c0-2.2-0.7-3.2-2.2-3.2
						c-0.9,0-1.9,0.6-3,1.8v8.7h-2L642.7,582.1z"/>
					<path class="st2" d="M532.9,611.6h1.7l0.2,2.2h0.1c0.6-1.4,1.9-2.3,3.4-2.5c0.4,0,0.9,0.1,1.3,0.2l-0.4,1.8
						c-0.4-0.1-0.8-0.2-1.2-0.2c-1,0-2.2,0.7-3,2.8v7.7h-2L532.9,611.6z"/>
					<path class="st2" d="M540.3,617.6c0-4,2.6-6.3,5.5-6.3s5.5,2.3,5.5,6.3s-2.6,6.3-5.5,6.3S540.3,621.5,540.3,617.6z
						 M549.3,617.6c0-2.7-1.4-4.6-3.4-4.6s-3.4,1.9-3.4,4.6s1.4,4.6,3.4,4.6S549.2,620.3,549.3,617.6L549.3,617.6z"/>
					<path class="st2" d="M553.6,617.6c0-4,2.7-6.3,5.7-6.3c1.3,0,2.6,0.5,3.5,1.4l-1,1.3c-0.6-0.6-1.5-1-2.4-1.1
						c-2.2,0-3.8,1.9-3.8,4.6s1.5,4.6,3.7,4.6c1.1,0,2-0.5,2.8-1.2l0.9,1.4c-1.1,1-2.4,1.5-3.9,1.5
						C556,623.8,553.6,621.5,553.6,617.6z"/>
					<path class="st2" d="M565.7,606h2v11.9h0.1l5.1-6.3h2.2l-4,4.8l4.5,7.1h-2.2l-3.5-5.7l-2.2,2.6v3.1h-2L565.7,606L565.7,606z"/>
					<path class="st2" d="M576.4,611.6h2.1l1.8,6.9c0.3,1.1,0.5,2.2,0.7,3.3h0.1c0.2-1.1,0.5-2.2,0.8-3.3l1.8-6.9h2l1.9,6.9
						c0.3,1.1,0.6,2.2,0.8,3.3h0.1c0.3-1.1,0.5-2.2,0.7-3.3l1.7-6.9h1.9l-3.2,12h-2.5l-1.7-6.4c-0.3-1.1-0.5-2.2-0.8-3.4h-0.1
						c-0.3,1.2-0.5,2.3-0.8,3.5l-1.7,6.4h-2.4L576.4,611.6z"/>
					<path class="st2" d="M594.5,617.6c0-3.9,2.6-6.3,5.4-6.3c3.1,0,4.8,2.2,4.8,5.6c0,0.4,0,0.8-0.1,1.1h-8.1
						c0.1,2.5,1.7,4.2,4,4.2c1.1,0,2.1-0.4,3-1l0.7,1.3c-1.2,0.8-2.6,1.2-4,1.2C597,623.8,594.5,621.5,594.5,617.6z M602.8,616.6
						c0-2.4-1.1-3.7-3-3.7c-1.7,0-3.2,1.3-3.4,3.7H602.8z"/>
					<path class="st2" d="M607.6,621.2V606h2v15.3c0,0.6,0.3,0.9,0.6,0.9c0.1,0,0.3,0,0.4,0l0.3,1.5c-0.4,0.1-0.8,0.2-1.2,0.2
						C608.2,623.8,607.6,622.9,607.6,621.2z"/>
					<path class="st2" d="M613.8,621.2V606h2v15.3c0,0.6,0.3,0.9,0.6,0.9c0.1,0,0.3,0,0.4,0l0.3,1.5c-0.4,0.1-0.8,0.2-1.2,0.2
						C614.5,623.8,613.8,622.9,613.8,621.2z"/>
					<path class="st2" d="M624.1,617.6c0-4,2.7-6.3,5.8-6.3c1.3,0,2.6,0.5,3.5,1.4l-1,1.3c-0.6-0.6-1.5-1-2.4-1.1
						c-2.2,0-3.8,1.9-3.8,4.6s1.5,4.6,3.7,4.6c1,0,2-0.5,2.8-1.2l0.9,1.4c-1.1,1-2.4,1.5-3.9,1.5
						C626.6,623.8,624.1,621.5,624.1,617.6z"/>
					<path class="st2" d="M635.2,620.5c0-2.6,2.2-3.9,7.3-4.5c0-1.5-0.5-3-2.5-3c-1.3,0.1-2.5,0.5-3.6,1.3l-0.8-1.4
						c1.4-1,3-1.5,4.7-1.6c2.9,0,4.1,1.9,4.1,4.9v7.3h-1.7l-0.2-1.4h-0.1c-1.1,1-2.5,1.6-3.9,1.7c-1.8,0.1-3.4-1.2-3.5-3
						C635.2,620.7,635.2,620.6,635.2,620.5z M642.6,620.6v-3.3c-4,0.5-5.4,1.5-5.4,3c0,1.4,0.9,1.9,2.1,1.9
						C640.5,622.1,641.7,621.6,642.6,620.6z"/>
					<path class="st2" d="M647.5,625.8c0.1-1.1,0.7-2.2,1.8-2.7V623c-0.7-0.4-1.1-1.2-1.1-2c0.1-0.9,0.6-1.7,1.3-2.2v-0.1
						c-1-0.8-1.5-2-1.6-3.2c0-2.3,1.9-4.2,4.2-4.3c0.1,0,0.2,0,0.3,0c0.6,0,1.1,0.1,1.7,0.3h4.2v1.6h-2.4c0.6,0.7,1,1.5,1,2.5
						c0,2.3-1.8,4.1-4,4.2c-0.1,0-0.2,0-0.4,0c-0.6,0-1.2-0.1-1.8-0.4c-0.5,0.3-0.8,0.8-0.8,1.4c0,0.8,0.5,1.3,2.1,1.3h2.3
						c2.8,0,4.2,0.9,4.2,2.8c0,2.2-2.4,4.1-6,4.1C649.5,629,647.5,627.9,647.5,625.8z M656.5,625.2c0-1.1-0.8-1.5-2.4-1.5H652
						c-0.5,0-1-0.1-1.6-0.2c-0.7,0.4-1.2,1.2-1.2,2c0,1.3,1.3,2.1,3.5,2.1S656.5,626.5,656.5,625.2z M654.9,615.6
						c0.1-1.4-0.9-2.6-2.3-2.8c-1.4-0.1-2.6,0.9-2.8,2.3c0,0.1,0,0.3,0,0.5c-0.2,1.4,0.8,2.7,2.2,2.9s2.7-0.8,2.9-2.2
						C655,616,655,615.8,654.9,615.6z"/>
					<path class="st2" d="M659.5,617.6c0-3.9,2.6-6.3,5.4-6.3c3,0,4.8,2.2,4.8,5.6c0,0.4,0,0.8-0.1,1.1h-8c0.1,2.5,1.7,4.2,4,4.2
						c1.1,0,2.1-0.4,3-1l0.7,1.3c-1.2,0.8-2.5,1.2-3.9,1.2C662.1,623.8,659.5,621.5,659.5,617.6z M667.9,616.6c0-2.4-1.1-3.7-3-3.7
						c-1.7,0-3.2,1.3-3.4,3.7H667.9z"/>
					<path class="st3" d="M493.9,504.8h0.9l0.1,1.8l0,0c0.9-1.2,2.3-2,3.7-2.1c1.5-0.1,2.9,0.9,3.3,2.4c1.3-1.5,2.6-2.4,4-2.4
						c2.3,0,3.5,1.5,3.5,4.5v7.6h-1.1v-7.4c0-2.5-0.8-3.7-2.7-3.7c-1.1,0-2.2,0.7-3.5,2.2v8.9H501v-7.4c0-2.5-0.8-3.7-2.7-3.7
						c-1.1,0-2.2,0.7-3.5,2.2v8.9h-1.1L493.9,504.8z"/>
					<path class="st3" d="M513.4,501c0-0.6,0.4-1,1-1s1,0.4,1,1s-0.4,1-1,1S513.4,501.6,513.4,501z M513.8,504.9h1.1v11.8h-1.1
						V504.9z"/>
					<path class="st3" d="M519.7,513.4v-7.6h-1.8V505l1.9-0.1l0.1-3.4h0.9v3.4h3.4v1h-3.4v7.7c0,1.5,0.4,2.5,2,2.5
						c0.5,0,1-0.2,1.5-0.4l0.3,0.9c-0.6,0.2-1.3,0.4-1.9,0.5C520.4,517,519.7,515.5,519.7,513.4z"/>
					<path class="st3" d="M532.3,513.4v-7.6h-1.8V505l1.9-0.1l0.1-3.4h0.9v3.4h3.4v1h-3.4v7.7c0,1.5,0.4,2.5,2,2.5
						c0.5,0,1-0.2,1.5-0.4l0.3,0.9c-0.6,0.2-1.3,0.4-1.9,0.5C533,517,532.3,515.5,532.3,513.4z"/>
					<path class="st3" d="M538.5,510.8c0-3.8,2.5-6.2,5.1-6.2c2.8,0,4.5,2,4.5,5.5c0,0.3,0,0.6-0.1,0.9h-8.5c0,3,1.8,5.1,4.4,5.1
						c1.1,0,2.2-0.3,3.2-1l0.4,0.8c-1.1,0.8-2.4,1.2-3.7,1.2C540.9,517,538.5,514.6,538.5,510.8z M547.1,510c0-3-1.4-4.5-3.5-4.5
						s-3.8,1.7-4,4.5H547.1z"/>
					<path class="st3" d="M550.3,510.8c0-4,2.5-6.2,5.4-6.2c1.3,0,2.5,0.5,3.5,1.5l-0.6,0.8c-0.7-0.8-1.7-1.2-2.8-1.2
						c-2.4,0-4.3,2.2-4.3,5.3s1.7,5.2,4.3,5.2c1.2,0,2.3-0.5,3.2-1.4l0.6,0.8c-1,1-2.4,1.5-3.8,1.6
						C552.6,517,550.3,514.7,550.3,510.8z"/>
					<path class="st3" d="M562.3,499h1.1v5.1v2.6c1.2-1.2,2.4-2.2,4.1-2.2c2.4,0,3.6,1.5,3.6,4.5v7.6H570v-7.4
						c0-2.5-0.8-3.7-2.7-3.7c-1.4,0-2.4,0.7-3.8,2.2v8.9h-1.1L562.3,499z"/>
					<path class="st3" d="M577.4,510.5l-3.7-5.6h1.2l1.9,3c0.4,0.7,0.8,1.3,1.2,1.9h0.1c0.4-0.7,0.8-1.3,1.2-1.9l1.8-3h1.1l-3.7,5.7
						l4,6.1h-1.2l-2.1-3.2c-0.4-0.7-0.9-1.5-1.4-2.2h-0.1c-0.5,0.7-0.9,1.4-1.4,2.2l-2,3.2h-1.1L577.4,510.5z"/>
					<path class="st3" d="M593.4,509h-4.6v-0.9h4.6v-5h1v5h4.5v0.9h-4.5v5h-1V509z"/>
					<path class="st3" d="M607.2,513.4v-7.6h-1.8V505l1.9-0.1l0.1-3.4h0.9v3.4h3.4v1h-3.4v7.7c0,1.5,0.4,2.5,2,2.5
						c0.5,0,1-0.2,1.5-0.4l0.3,0.9c-0.6,0.2-1.3,0.4-1.9,0.5C607.9,517,607.2,515.5,607.2,513.4z"/>
					<path class="st3" d="M613.2,513.8c0-2.6,2.4-3.9,7.6-4.5c0-1.8-0.5-3.8-2.8-3.8c-1.4,0.1-2.7,0.5-3.8,1.4l-0.5-0.8
						c1.3-0.9,2.8-1.5,4.4-1.5c2.8,0,3.7,2,3.7,4.6v7.5H621l-0.1-1.5h-0.1c-1.2,1.1-2.6,1.7-4.2,1.8c-1.7,0.2-3.2-1.1-3.4-2.8
						C613.2,514.1,613.2,513.9,613.2,513.8z M620.8,514.1v-4c-4.9,0.6-6.5,1.7-6.5,3.6c-0.1,1.2,0.9,2.3,2.1,2.4c0.1,0,0.3,0,0.4,0
						C618.2,516,619.4,515.3,620.8,514.1L620.8,514.1z"/>
					<path class="st3" d="M625.9,512.4v-7.6h1.1v7.4c0,2.5,0.8,3.7,2.7,3.7c1.4,0,2.4-0.7,3.8-2.4v-8.7h1.1v11.8h-0.9l-0.1-2h-0.1
						c-1.2,1.3-2.4,2.3-4,2.3C627.1,517,625.9,515.5,625.9,512.4z"/>
					<path class="st3" d="M645.1,515.5L645.1,515.5l-0.2,1.2H644V499h1.1v5.1l-0.1,2.3c1.1-1.1,2.5-1.7,4.1-1.8c3.2,0,4.7,2.4,4.7,6
						c0,4-2.4,6.4-5.2,6.4C647.4,516.8,646.1,516.3,645.1,515.5z M652.7,510.6c0-2.9-1-5.1-3.8-5.1c-1.5,0.2-2.8,0.8-3.8,1.9v7
						c0.9,0.9,2.2,1.4,3.5,1.5C651,516,652.7,513.8,652.7,510.6z"/>
					<path class="st3" d="M656.4,510.8c0-3.8,2.5-6.2,5.1-6.2s4.5,2,4.5,5.5c0,0.3,0,0.6-0.1,0.9h-8.5c0,3,1.8,5.1,4.4,5.1
						c1.1,0,2.2-0.3,3.2-1l0.4,0.8c-1.1,0.8-2.4,1.2-3.7,1.2C658.8,517,656.4,514.6,656.4,510.8z M665,510c0-3-1.4-4.5-3.5-4.5
						s-3.8,1.7-4,4.5H665z"/>
					<path class="st3" d="M669.3,513.4v-7.6h-1.9V505l1.9-0.1l0.1-3.4h0.9v3.4h3.4v1h-3.4v7.7c0,1.5,0.4,2.5,2,2.5
						c0.5,0,1-0.2,1.5-0.4l0.3,0.9c-0.6,0.2-1.3,0.4-1.9,0.5C669.9,517,669.3,515.5,669.3,513.4z"/>
					<path class="st3" d="M675.3,513.8c0-2.6,2.4-3.9,7.6-4.5c0-1.8-0.5-3.8-2.8-3.8c-1.4,0.1-2.7,0.5-3.8,1.4l-0.5-0.8
						c1.3-0.9,2.8-1.5,4.4-1.5c2.8,0,3.7,2,3.7,4.6v7.5H683l-0.1-1.5l0,0c-1.2,1.1-2.6,1.7-4.2,1.8c-1.7,0.2-3.2-1-3.5-2.7
						C675.3,514.1,675.3,513.9,675.3,513.8z M682.9,514.1v-4c-4.8,0.6-6.5,1.7-6.5,3.6c-0.1,1.2,0.9,2.3,2.1,2.4c0.1,0,0.3,0,0.4,0
						C680.2,516,681.4,515.3,682.9,514.1L682.9,514.1z"/>
					<path class="st3" d="M693.1,504.8h0.9l0.1,1.5h0.1c1.1-1,2.5-1.6,4-1.8c3.2,0,4.7,2.4,4.7,6c0,4-2.4,6.4-5.2,6.4
						c-1.3-0.1-2.6-0.6-3.6-1.5v6.5H693L693.1,504.8z M701.8,510.6c0-2.9-1-5.1-3.8-5.1c-1.2,0-2.4,0.7-3.8,1.9v7
						c1,0.9,2.2,1.4,3.5,1.5C700.1,516,701.8,513.8,701.8,510.6L701.8,510.6z"/>
					<path class="st3" d="M706,501c0-0.6,0.4-1,1-1s1,0.4,1,1s-0.4,1-1,1S706,501.6,706,501z M706.4,504.9h1.1v11.8h-1.1V504.9z"/>
					<rect x="0.5" y="-8" class="st4" width="1200.8" height="4301.5"/>
					<rect x="0.5" y="50.4" class="st4" width="1200.8" height="4301.1"/>
					<rect x="0.5" y="47.4" class="st4" width="1200.8" height="4301.1"/>
					<rect x="0.5" y="47.4" class="st4" width="1200.8" height="4301.1"/>
					
						<rect x="-2263.2" y="1354.9" transform="matrix(0.374 -0.9274 0.9274 0.374 -1887.6605 1122.0436)" class="st4" width="4301" height="1209"/>
					<polygon class="st5" points="758.5,361.7 638,391.2 552.2,301.7 586.9,182.6 707.3,153.1 793.1,242.6 					"/>
					<polygon class="st6" points="613.1,361.7 492.7,391.2 406.9,301.7 441.5,182.6 562,153.1 647.8,242.6 					"/>
					<polygon class="st7" points="467.8,361.7 347.4,391.2 261.6,301.7 296.2,182.6 416.6,153.1 502.4,242.6 					"/>
					<polygon class="st8" points="903.8,361.7 783.4,391.2 697.6,301.7 732.2,182.6 852.6,153.1 938.4,242.6 					"/>
					<path class="st9" d="M422.8,341.8l-33.9-52.3L355,341.8h-20.3l44.1-67.8l-44.1-68H355l33.9,52.3l33.9-52.3h20.4L399,274
						l44.2,67.8H422.8z"/>
					<path class="st9" d="M481.3,223v40.7h51v17h-51v61.1h-16.9V206h84.9v17H481.3z"/>
					<path class="st9" d="M707,341.8V206h16.9v135.8H707z"/>
					<path class="st9" d="M845.8,341.8l-34.1-59.5H772v59.5h-16.9V206h72.1c21-0.1,38.1,16.8,38.2,37.8c0.1,9.6-3.5,18.9-10.1,26
						c-6.3,7.1-15,11.6-24.4,12.5l34.5,59.6L845.8,341.8z M848.3,244.3c-0.1-11.7-9.5-21.2-21.2-21.3H772v42.4h55.1
						c5.6,0,11-2.2,14.9-6.2C846.1,255.4,848.4,250,848.3,244.3z"/>
					<polygon class="st9" points="575.6,283.7 545.2,341.8 563.1,341.8 597.1,273.9 					"/>
					<polygon class="st9" points="654.9,283.7 633.4,275 666.4,341.8 684.6,341.8 					"/>
					<polygon class="st9" points="612.6,217.8 603.5,265.2 614.3,274.2 615.2,211.3 616.3,274.1 626.8,265.2 618.3,218.2 
						628.4,265.5 651.2,273.9 615.2,206 579.1,273.9 601.9,265.5 					"/>
					<polygon class="st7" points="754.6,611.9 746.5,607.1 738.3,611.7 738.3,621.1 746.3,625.8 754.5,621.2 					"/>
					<polygon class="st5" points="463.2,552.1 455.1,547.4 446.9,552 446.8,561.3 454.9,566.1 463.1,561.5 					"/>
					<line class="st4" x1="-81.1" y1="422.7" x2="306" y2="810.3"/>
					<line class="st4" x1="-136.9" y1="390.6" x2="250.2" y2="778.3"/>
					<line class="st4" x1="-103.6" y1="363.1" x2="283.5" y2="750.8"/>
					<line class="st4" x1="-133.9" y1="410.3" x2="253.2" y2="798"/>
					<g class="st10">
						<line class="st11" x1="1297.5" y1="355.6" x2="910.4" y2="-32.1"/>
						<line class="st11" x1="1353.3" y1="387.7" x2="966.2" y2="0"/>
						<line class="st11" x1="1318.9" y1="409.2" x2="931.8" y2="21.5"/>
						<line class="st11" x1="1350.3" y1="368" x2="963.2" y2="-19.7"/>
					</g>
					<g class="st10">
						<line class="st12" x1="305.1" y1="779.9" x2="-82" y2="392.3"/>
						<line class="st12" x1="360.9" y1="812" x2="-26.2" y2="424.3"/>
						<line class="st12" x1="327.5" y1="839.5" x2="-59.6" y2="451.8"/>
						<line class="st12" x1="357.9" y1="792.3" x2="-29.2" y2="404.7"/>
					</g>
					<g class="st10">
						<line class="st4" x1="1282.4" y1="348.5" x2="895.3" y2="-39.2"/>
						<line class="st4" x1="1338.1" y1="380.6" x2="951" y2="-7.1"/>
						<line class="st4" x1="1304.8" y1="408.1" x2="917.7" y2="20.4"/>
						<line class="st4" x1="1335.1" y1="360.9" x2="948" y2="-26.8"/>
					</g>
					<rect x="1.4" y="50.4" class="st4" width="1200" height="679.7"/>
					<rect x="0.4" y="50.4" class="st4" width="1200" height="679.7"/>
					<polygon class="st4" points="1200.7,731.1 502.3,731.1 479.9,731.1 0.7,731.1 0.7,51.4 1200.7,51.4 					"/>
				</g>
			</g>
		</g>
	</g>
</g>
<rect x="384.2" y="467.6" class="st1" width="502.5" height="186.6"/>
</svg>
