<?xml version="1.0" encoding="utf-8"?>
<!-- Generator: Adobe Illustrator 19.0.0, SVG Export Plug-In . SVG Version: 6.00 Build 0)  -->
<svg version="1.1" id="Layer_1" xmlns="http://www.w3.org/2000/svg" xmlns:xlink="http://www.w3.org/1999/xlink" x="0px" y="0px"
	 viewBox="-934 -31 2028 410" style="enable-background:new -934 -31 2028 410;" xml:space="preserve">
<style type="text/css">
	.st0{fill:#72CFF5;}
	.st1{fill:#FFFFFF;}
</style>
<polygon id="XMLID_36_" class="st0" points="0.8,273.9 -54,376 4,376 53.6,276.9 "/>
<g>
	<path class="st0" d="M-784.8,176.1L-912.8-4.5h66.1l98.9,146.2l97.8-146.2h64.5l-126.8,180L-572.6,376h-67.7l-109.1-165L-859,376
		h-64L-784.8,176.1z"/>
	<path class="st0" d="M-386.6-4.5h239.2v48.4H-335v119.3h174.7v48.4H-335V376h-51.6V-4.5z"/>
	<path class="st0" d="M536.7-4.5h51.6V376h-51.6V-4.5z"/>
	<path class="st0" d="M816.7-4.5h133.8c24.4,0,44.4,3.3,60.2,9.9c15.8,6.6,28.2,15,37.4,25.3c9.1,10.2,15.5,21.7,19.1,34.4
		c3.6,12.7,5.4,25,5.4,36.8c0,12.2-2.2,23.9-6.4,35.2c-4.3,11.3-10.5,21.5-18.5,30.6c-8.1,9.1-17.9,16.8-29.6,23.1
		c-11.6,6.3-24.6,10.1-39,11.6l108,173.6h-64.5l-96.7-167.7h-57.5V376h-51.6V-4.5z M868.3,163.2H936c10,0,20-0.8,29.8-2.4
		c9.9-1.6,18.6-4.6,26.3-8.9c7.7-4.3,13.9-10.5,18.5-18.5c4.7-8.1,7-18.5,7-31.4s-2.3-23.4-7-31.4c-4.7-8.1-10.8-14.2-18.5-18.5
		c-7.7-4.3-16.5-7.3-26.3-8.9c-9.9-1.6-19.8-2.4-29.8-2.4h-67.7V163.2z"/>
</g>
<g>
	<g>
		<g>
			<polygon class="st1" points="159.9,-23.4 10.6,255.8 132.5,262.4 			"/>
			<polygon class="st1" points="163,298.2 163,1 137.7,264.2 			"/>
			<polygon class="st1" points="165.3,1.6 165.3,298.2 190.5,264.4 			"/>
			<polygon class="st1" points="168.6,-22.9 195.9,262.4 317.1,255.5 			"/>
		</g>
	</g>
</g>
<polygon id="XMLID_1_" class="st0" points="273.5,276.9 323.2,376 381.1,376 326.4,273.9 "/>
</svg>
