<?xml version="1.0" encoding="utf-8"?>
<!-- Generator: Adobe Illustrator 19.0.0, SVG Export Plug-In . SVG Version: 6.00 Build 0)  -->
<svg version="1.1" id="Layer_1" xmlns="http://www.w3.org/2000/svg" xmlns:xlink="http://www.w3.org/1999/xlink" x="0px" y="0px"
	 viewBox="-65 122.3 167.3 56.7" style="enable-background:new -65 122.3 167.3 56.7;" xml:space="preserve">
<style type="text/css">
	.st0{enable-background:new    ;}
	.st1{fill:#5083BF;}
	.st2{fill:#FFFFFF;}
</style>
<g class="st0">
	<path class="st1" d="M-45.1,169.9c0.9,0,1.7-0.1,2.6-0.2s1.5-0.3,2-0.4v3.8c-0.5,0.3-1.3,0.5-2.4,0.6c-1.1,0.2-2,0.3-2.9,0.3
		c-6.4,0-9.6-3.4-9.6-10.1v-19.7h-4.7v-2.4l4.7-2.1l2.1-7.1h2.9v7.7h9.6v3.9h-9.6v19.5c0,2,0.5,3.5,1.4,4.6
		C-48.1,169.3-46.8,169.9-45.1,169.9z"/>
	<path class="st1" d="M-20,174c-4.9,0-8.7-1.5-11.6-4.5s-4.2-7.1-4.2-12.4c0-5.3,1.3-9.6,3.9-12.7c2.6-3.1,6.1-4.7,10.6-4.7
		c4.1,0,7.4,1.4,9.8,4.1c2.4,2.7,3.6,6.3,3.6,10.8v3.2h-22.8c0.1,3.9,1.1,6.8,2.9,8.8c1.9,2,4.5,3,7.9,3c3.6,0,7.1-0.7,10.6-2.2v4.5
		c-1.8,0.8-3.4,1.3-5,1.6C-15.9,173.8-17.8,174-20,174z M-21.4,143.9c-2.7,0-4.8,0.9-6.4,2.6c-1.6,1.7-2.5,4.1-2.8,7.2h17.3
		c0-3.2-0.7-5.6-2.1-7.3C-16.7,144.8-18.8,143.9-21.4,143.9z"/>
	<path class="st1" d="M13.9,174c-4.8,0-8.5-1.5-11.1-4.4c-2.6-2.9-3.9-7.1-3.9-12.5c0-5.5,1.3-9.8,4-12.8c2.7-3,6.5-4.5,11.4-4.5
		c1.6,0,3.2,0.2,4.8,0.5s2.8,0.7,3.7,1.2l-1.5,4.3c-1.1-0.4-2.3-0.8-3.6-1.1c-1.3-0.3-2.5-0.4-3.5-0.4C7.4,144.2,4,148.4,4,157
		c0,4.1,0.8,7.2,2.5,9.4c1.6,2.2,4.1,3.3,7.3,3.3c2.8,0,5.6-0.6,8.5-1.8v4.4C20,173.4,17.3,174,13.9,174z"/>
	<path class="st1" d="M52.7,173.4V152c0-2.7-0.6-4.7-1.8-6c-1.2-1.3-3.1-2-5.8-2c-3.5,0-6,0.9-7.6,2.8c-1.6,1.9-2.4,5-2.4,9.3v17.3
		h-5v-46.9h5v14.2c0,1.7-0.1,3.1-0.2,4.3h0.3c1-1.6,2.4-2.8,4.2-3.8s3.9-1.4,6.2-1.4c4,0,7.1,1,9.1,2.9s3,5,3,9.2v21.6H52.7z"/>
</g>
<g class="st0">
	<path class="st2" d="M74.4,156.2l-10.9-16.5H74l6.5,10.7l6.6-10.7h10.4l-11,16.5l11.5,17.2H87.6l-7.1-11.6l-7.1,11.6H63L74.4,156.2
		z"/>
</g>
</svg>
