<?xml version="1.0" encoding="utf-8"?>
<!-- Generator: Adobe Illustrator 19.0.0, SVG Export Plug-In . SVG Version: 6.00 Build 0)  -->
<svg version="1.1" id="Layer_1" xmlns="http://www.w3.org/2000/svg" xmlns:xlink="http://www.w3.org/1999/xlink" x="0px" y="0px"
	 viewBox="814 11 2037 394" style="enable-background:new 814 11 2037 394;" xml:space="preserve">
<style type="text/css">
	.st0{fill:#72CFF5;}
</style>
<polygon id="XMLID_36_" class="st0" points="1746.8,296.1 1692,398.2 1750,398.2 1799.6,299.1 "/>
<path class="st0" d="M961.2,198.4l-128-180.6h66.1l98.9,146.2L1096,17.8h64.5l-126.8,180l139.7,200.5h-67.7l-109.1-165L887,398.2
	h-64L961.2,198.4z"/>
<path class="st0" d="M1359.4,17.8h239.2v48.4H1411v119.3h174.7v48.4H1411v164.4h-51.6V17.8z"/>
<path class="st0" d="M2291.6,17.8h51.6v380.5h-51.6V17.8z"/>
<path class="st0" d="M2571.6,17.8h133.8c24.4,0,44.4,3.3,60.2,9.9s28.2,15,37.4,25.3c9.1,10.2,15.5,21.7,19.1,34.4
	c3.6,12.7,5.4,25,5.4,36.8c0,12.2-2.2,23.9-6.4,35.2c-4.3,11.3-10.5,21.5-18.5,30.6c-8.1,9.1-17.9,16.8-29.6,23.1
	c-11.6,6.3-24.6,10.1-39,11.6l108,173.6h-64.5l-96.7-167.7h-57.5v167.7h-51.6V17.8H2571.6z M2623.2,185.4h67.7c10,0,20-0.8,29.8-2.4
	c9.9-1.6,18.6-4.6,26.3-8.9c7.7-4.3,13.9-10.5,18.5-18.5c4.7-8.1,7-18.5,7-31.4s-2.3-23.4-7-31.4c-4.7-8.1-10.8-14.2-18.5-18.5
	c-7.7-4.3-16.5-7.3-26.3-8.9c-9.9-1.6-19.8-2.4-29.8-2.4h-67.7V185.4z"/>
<polygon id="XMLID_1_" class="st0" points="2026.5,299.1 2076.2,398.2 2134.1,398.2 2079.4,296.1 "/>
</svg>
