<?xml version="1.0" encoding="utf-8"?>
<!-- Generator: Adobe Illustrator 19.0.0, SVG Export Plug-In . SVG Version: 6.00 Build 0)  -->
<svg version="1.1" id="Layer_1" xmlns="http://www.w3.org/2000/svg" xmlns:xlink="http://www.w3.org/1999/xlink" x="0px" y="0px"
	 viewBox="127 -127 554 554" style="enable-background:new 127 -127 554 554;" xml:space="preserve">
<style type="text/css">
	.st0{fill:none;stroke:#FFFFFF;stroke-width:8;stroke-linecap:round;stroke-miterlimit:10;}
	.st1{fill:none;stroke:#FEF304;stroke-width:6;stroke-linecap:round;stroke-miterlimit:10;}
</style>
<rect id="XMLID_2_" x="126.6" y="-127.4" width="554.9" height="554.9"/>
<g id="XMLID_3_">
	<line id="XMLID_1_" class="st0" x1="195.3" y1="115.8" x2="265.6" y2="115.8"/>
	<line id="XMLID_5_" class="st0" x1="230.5" y1="115.8" x2="230.5" y2="213.7"/>
	<line id="XMLID_6_" class="st0" x1="300" y1="115.8" x2="300" y2="213.7"/>
	<line id="XMLID_7_" class="st0" x1="360.8" y1="115.8" x2="360.8" y2="213.7"/>
	<line id="XMLID_8_" class="st0" x1="300.5" y1="164.5" x2="360.7" y2="164.5"/>
	<line id="XMLID_9_" class="st0" x1="399" y1="115.8" x2="399" y2="213.7"/>
	<line id="XMLID_10_" class="st0" x1="436.1" y1="115.8" x2="436.1" y2="213.7"/>
	<line id="XMLID_11_" class="st0" x1="506" y1="115.8" x2="506" y2="213.7"/>
	<line id="XMLID_12_" class="st0" x1="506" y1="213.7" x2="436.1" y2="115.8"/>
	<line id="XMLID_13_" class="st0" x1="543.1" y1="115.8" x2="543.1" y2="213.7"/>
	<line id="XMLID_14_" class="st0" x1="612" y1="116.3" x2="543" y2="185.3"/>
	<line id="XMLID_15_" class="st0" x1="612.7" y1="213" x2="569.9" y2="158.3"/>
	<line id="XMLID_16_" class="st1" x1="420.9" y1="94.2" x2="448.7" y2="85.2"/>
	<line id="XMLID_17_" class="st1" x1="409.9" y1="81.3" x2="425.4" y2="55.5"/>
	<line id="XMLID_18_" class="st1" x1="378.4" y1="54.3" x2="392.2" y2="80.5"/>
	<line id="XMLID_19_" class="st1" x1="352.4" y1="81.2" x2="378.9" y2="92.3"/>
</g>
</svg>
