<?xml version="1.0" encoding="utf-8"?>
<!-- Generator: Adobe Illustrator 19.0.0, SVG Export Plug-In . SVG Version: 6.00 Build 0)  -->
<svg version="1.1" id="Layer_1" xmlns="http://www.w3.org/2000/svg" xmlns:xlink="http://www.w3.org/1999/xlink" x="0px" y="0px"
	 viewBox="474 -243 1200 630" style="enable-background:new 474 -243 1200 630;" xml:space="preserve">
<style type="text/css">
	.st0{fill:#05354E;}
	.st1{fill:#FFFFFF;}
	.st2{fill:#72CFF5;}
</style>
<g id="XMLID_3_">
	<rect id="XMLID_11_" x="475" y="-243" class="st0" width="1198" height="630"/>
	<g id="XMLID_4_">
		<g id="XMLID_5_">
			<polygon id="XMLID_2_" class="st1" points="1096.1,15.6 1083.8,87.6 1094.9,97 1096.5,13.9 1098.4,97 1109.6,87.6 1097.3,15.8 
				1113.8,87 1141.6,97 1096.7,12.6 1051.8,97 1079.7,87 			"/>
		</g>
	</g>
	<polygon id="XMLID_36_" class="st2" points="1049.7,102.6 1034.3,131.4 1050.7,131.4 1068,96.4 	"/>
	<path id="XMLID_10_" class="st2" d="M827.4,74.8l-36.2-51.2h18.7l28,41.4l27.7-41.4h18.3L848,74.5l39.5,56.7h-19.2l-30.9-46.8
		l-31,46.8h-18.1L827.4,74.8z"/>
	<path id="XMLID_9_" class="st2" d="M940.1,23.6h67.7v13.7h-53V71h49.5v13.7h-49.5v46.5h-14.7V23.6z"/>
	<path id="XMLID_8_" class="st2" d="M1203.9,23.6h14.6v107.7h-14.6V23.6z"/>
	<path id="XMLID_14_" class="st2" d="M1283.2,23.6h37.8c6.9,0,12.6,0.9,17,2.8c4.4,1.9,8,4.3,10.6,7.1c2.5,2.8,4.4,6.1,5.4,9.8
		c0.9,3.6,1.6,7.1,1.6,10.4c0,3.5-0.6,6.8-1.9,9.9c-1.3,3.1-3,6.1-5.2,8.7c-2.4,2.5-5,4.7-8.3,6.6c-3.3,1.7-6.9,2.8-11,3.3
		l30.6,49.1h-18.3L1313.9,84h-16.2v47.4H1283L1283.2,23.6L1283.2,23.6z M1297.8,71.2h19.2c2.8,0,5.7-0.2,8.5-0.6
		c2.8-0.5,5.2-1.3,7.4-2.5c2.2-1.3,3.9-3,5.2-5.2c1.3-2.4,2-5.2,2-8.8s-0.6-6.6-2-8.8c-1.3-2.4-3-4.1-5.2-5.2
		c-2.2-1.1-4.7-2-7.4-2.5c-2.8-0.5-5.7-0.6-8.5-0.6h-19.2V71.2z"/>
	<polygon id="XMLID_1_" class="st2" points="1125.5,96.1 1143,131.4 1159.4,131.4 1143.9,102.6 	"/>
</g>
</svg>
