<?xml version="1.0" encoding="utf-8"?>
<!-- Generator: Adobe Illustrator 19.0.0, SVG Export Plug-In . SVG Version: 6.00 Build 0)  -->
<svg version="1.1" id="Layer_1" xmlns="http://www.w3.org/2000/svg" xmlns:xlink="http://www.w3.org/1999/xlink" x="0px" y="0px"
	 viewBox="-400 -115 1200 630" style="enable-background:new -400 -115 1200 630;" xml:space="preserve">
<style type="text/css">
	.st0{fill:#05354E;}
	.st1{fill:#FFFFFF;}
	.st2{fill:#72CFF5;}
</style>
<g id="XMLID_3_">
	<rect id="XMLID_11_" x="-399" y="-115" class="st0" width="1198" height="630"/>
	<g id="XMLID_4_">
		<g id="XMLID_5_">
			<polygon id="XMLID_2_" class="st1" points="222.1,143.6 209.8,215.6 220.9,225 222.5,141.9 224.4,225 235.6,215.6 223.3,143.8 
				239.8,215 267.6,225 222.7,140.6 177.8,225 205.7,215 			"/>
		</g>
	</g>
	<polygon id="XMLID_36_" class="st2" points="175.7,230.6 160.3,259.4 176.7,259.4 194,224.4 	"/>
	<path id="XMLID_10_" class="st2" d="M-46.6,202.8l-36.2-51.2h18.7l28,41.4l27.7-41.4H9.9L-26,202.5l39.5,56.7H-5.7l-30.9-46.8
		l-31,46.8h-18.1L-46.6,202.8z"/>
	<path id="XMLID_9_" class="st2" d="M66.1,151.6h67.7v13.7H80.8v33.7h49.5v13.7H80.8v46.5H66.1V151.6z"/>
	<path id="XMLID_8_" class="st2" d="M329.9,151.6h14.6v107.7h-14.6V151.6z"/>
	<path id="XMLID_14_" class="st2" d="M409.2,151.6H447c6.9,0,12.6,0.9,17,2.8c4.4,1.9,8,4.3,10.6,7.1c2.5,2.8,4.4,6.1,5.4,9.8
		c0.9,3.6,1.6,7.1,1.6,10.4c0,3.5-0.6,6.8-1.9,9.9c-1.3,3.1-3,6.1-5.2,8.7c-2.4,2.5-5,4.7-8.3,6.6c-3.3,1.7-6.9,2.8-11,3.3
		l30.6,49.1h-18.3L439.9,212h-16.2v47.4H409L409.2,151.6L409.2,151.6z M423.8,199.2H443c2.8,0,5.7-0.2,8.5-0.6
		c2.8-0.5,5.2-1.3,7.4-2.5c2.2-1.3,3.9-3,5.2-5.2c1.3-2.4,2-5.2,2-8.8c0-3.6-0.6-6.6-2-8.8c-1.3-2.4-3-4.1-5.2-5.2
		c-2.2-1.1-4.7-2-7.4-2.5c-2.8-0.5-5.7-0.6-8.5-0.6h-19.2V199.2z"/>
	<polygon id="XMLID_1_" class="st2" points="251.5,224.1 269,259.4 285.4,259.4 269.9,230.6 	"/>
</g>
</svg>
