<?xml version="1.0" encoding="utf-8"?>
<!-- Generator: Adobe Illustrator 19.0.0, SVG Export Plug-In . SVG Version: 6.00 Build 0)  -->
<svg version="1.1" id="Layer_1" xmlns="http://www.w3.org/2000/svg" xmlns:xlink="http://www.w3.org/1999/xlink" x="0px" y="0px"
	 viewBox="0 0 400 400" style="enable-background:new 0 0 400 400;" xml:space="preserve">
<style type="text/css">
	.st0{fill:#05354E;}
	.st1{fill:#72CFF5;}
	.st2{fill:#FFFFFF;}
</style>
<g id="XMLID_3_">
	<rect id="XMLID_11_" class="st0" width="400" height="400"/>
	<g id="XMLID_4_">
		<g id="XMLID_5_">
			<polygon id="XMLID_2_" class="st1" points="214,164.2 206.2,209.9 213.3,215.9 214.3,163.1 215.5,215.9 222.6,209.9 214.8,164.3 
				225.3,209.5 242.9,215.9 214.4,162.3 185.9,215.9 203.6,209.5 			"/>
		</g>
	</g>
	<polygon id="XMLID_36_" class="st2" points="184.6,219.4 174.8,237.7 185.2,237.7 196.2,215.5 	"/>
	<path id="XMLID_10_" class="st2" d="M43.4,201.8l-23-32.5h11.9l17.8,26.3l17.6-26.3h11.6l-22.8,32.3l25.1,36H69.4l-19.6-29.7
		l-19.7,29.7H18.6L43.4,201.8z"/>
	<path id="XMLID_9_" class="st2" d="M115,169.3h43v8.7h-33.7v21.4h31.4v8.7h-31.4v29.5H115V169.3z"/>
	<path id="XMLID_8_" class="st2" d="M282.5,169.3h9.3v68.4h-9.3V169.3z"/>
	<path id="XMLID_14_" class="st2" d="M332.8,169.3h24c4.4,0,8,0.6,10.8,1.8c2.8,1.2,5.1,2.7,6.7,4.5c1.6,1.8,2.8,3.9,3.4,6.2
		s1,4.5,1,6.6c0,2.2-0.4,4.3-1.2,6.3c-0.8,2-1.9,3.9-3.3,5.5c-1.5,1.6-3.2,3-5.3,4.2c-2.1,1.1-4.4,1.8-7,2.1l19.4,31.2h-11.6
		l-17.4-30.1h-10.3v30.1h-9.3L332.8,169.3L332.8,169.3z M342.1,199.5h12.2c1.8,0,3.6-0.1,5.4-0.4c1.8-0.3,3.3-0.8,4.7-1.6
		s2.5-1.9,3.3-3.3c0.8-1.5,1.3-3.3,1.3-5.6s-0.4-4.2-1.3-5.6c-0.8-1.5-1.9-2.6-3.3-3.3s-3-1.3-4.7-1.6c-1.8-0.3-3.6-0.4-5.4-0.4
		h-12.2V199.5z"/>
	<polygon id="XMLID_1_" class="st2" points="232.7,215.3 243.8,237.7 254.2,237.7 244.4,219.4 	"/>
</g>
</svg>
