<?xml version="1.0" encoding="utf-8"?>
<!-- Generator: Adobe Illustrator 19.0.0, SVG Export Plug-In . SVG Version: 6.00 Build 0)  -->
<svg version="1.1" id="Layer_1" xmlns="http://www.w3.org/2000/svg" xmlns:xlink="http://www.w3.org/1999/xlink" x="0px" y="0px"
	 viewBox="-49 51 300 300" style="enable-background:new -49 51 300 300;" xml:space="preserve">
<style type="text/css">
	.st0{fill:#05354D;}
	.st1{fill:#FFFFFF;}
	.st2{fill:#72CFF5;}
</style>
<rect id="XMLID_1_" x="-49" y="51" class="st0" width="300" height="300"/>
<g>
	<g>
		<path class="st1" d="M-3.2,196.8l-15.4-21.7h7.9l11.9,17.6L13,175.1h7.8L5.5,196.7l16.8,24.1h-8.1L1,201l-13.2,19.8h-7.7
			L-3.2,196.8z"/>
		<path class="st1" d="M44.7,175.1h28.8v5.8H50.9v14.3h21v5.8h-21v19.8h-6.2V175.1z"/>
		<path class="st1" d="M155.7,175.1h6.2v45.7h-6.2V175.1z"/>
		<path class="st1" d="M189.3,175.1h16.1c2.9,0,5.3,0.4,7.2,1.2c1.9,0.8,3.4,1.8,4.5,3c1.1,1.2,1.9,2.6,2.3,4.1
			c0.4,1.5,0.6,3,0.6,4.4c0,1.5-0.3,2.9-0.8,4.2c-0.5,1.4-1.3,2.6-2.2,3.7c-1,1.1-2.2,2-3.6,2.8c-1.4,0.8-3,1.2-4.7,1.4l13,20.9
			h-7.8l-11.6-20.2h-6.9v20.2h-6.2V175.1z M195.5,195.2h8.1c1.2,0,2.4-0.1,3.6-0.3c1.2-0.2,2.2-0.5,3.2-1.1c0.9-0.5,1.7-1.3,2.2-2.2
			c0.6-1,0.8-2.2,0.8-3.8c0-1.6-0.3-2.8-0.8-3.8c-0.6-1-1.3-1.7-2.2-2.2c-0.9-0.5-2-0.9-3.2-1.1c-1.2-0.2-2.4-0.3-3.6-0.3h-8.1
			V195.2z"/>
	</g>
	<g>
		<polygon class="st1" points="97.8,200.5 87,221.1 93.3,221.1 103.6,200.5 		"/>
		<polygon class="st1" points="125.9,200.5 119.9,200.5 130,221.1 136.4,221.1 		"/>
		<g>
			<g>
				<polygon class="st2" points="111.5,174.5 108.3,194.4 110.8,196.5 111.8,173.3 112.8,196.5 115.4,194.3 112.2,174.3 
					117.3,194.3 124.6,197 111.8,172.9 99,197 106.2,194.3 				"/>
			</g>
		</g>
	</g>
</g>
<polygon class="st2" points="99,197 124.6,197 111.8,172.9 "/>
</svg>
